<svg width="278" height="188" viewBox="0 0 278 188" fill="none" xmlns="http://www.w3.org/2000/svg">
<g filter="url(#filter0_d_19300_207)">
<rect x="4" width="270" height="180" rx="8" fill="#1A1A1A" shape-rendering="crispEdges"/>
<path d="M49.2957 70.1953C45.2257 71.9298 40.6978 76.7762 39.2733 82.8979C37.4927 90.6011 44.9713 93.866 45.5818 92.7947C46.2941 91.5193 44.2591 91.1112 43.8012 87.1321C43.2416 81.9796 45.6327 76.164 48.6852 73.6643C49.2448 73.2051 49.2448 73.8683 49.2448 75.0417C49.2448 77.2353 49.1431 96.6718 49.1431 100.753C49.1431 106.263 48.9396 107.997 48.5326 109.681C48.1256 111.415 47.4642 112.588 47.973 113.047C48.5326 113.558 50.9237 112.333 52.2973 110.395C53.9762 108.048 54.5358 105.293 54.6376 102.232C54.7393 98.5593 54.7393 92.7437 54.7393 89.4788C54.7393 86.4179 54.7902 77.5414 54.6885 72.1848C54.6376 70.8585 51.0255 69.4811 49.2957 70.1953ZM194.646 95.9576C194.493 98.8144 193.882 101.059 193.119 102.641C191.593 105.701 188.439 106.62 187.116 102.232C186.404 99.8347 186.353 95.8556 186.862 92.4886C187.37 89.0707 188.897 86.5199 191.339 86.775C193.781 87.0301 194.9 90.142 194.646 95.9576ZM153.691 113.711C153.64 118.455 152.928 122.638 151.3 123.812C149.011 125.546 146.009 124.22 146.62 120.751C147.179 117.69 149.825 114.527 153.691 110.701C153.691 110.752 153.691 111.619 153.691 113.711ZM153.03 95.9066C152.877 98.5083 152.216 101.11 151.504 102.59C149.977 105.65 146.823 106.62 145.5 102.181C144.585 99.1715 144.839 95.2944 145.246 92.8457C145.806 89.6828 147.23 86.724 149.723 86.724C152.216 86.775 153.386 89.4788 153.03 95.9066ZM129.322 95.9066C129.169 98.6614 128.661 100.957 127.796 102.641C126.219 105.65 123.166 106.62 121.793 102.232C120.826 99.0695 121.131 94.7843 121.538 92.4376C122.149 88.9686 123.675 86.5199 126.015 86.775C128.457 87.0301 129.627 90.142 129.322 95.9066ZM238.093 99.1205C237.482 99.1205 237.228 99.7327 237.024 100.753C236.261 104.324 235.447 105.14 234.379 105.14C233.209 105.14 232.14 103.355 231.886 99.7837C231.683 96.9779 231.683 91.8254 231.988 86.724C232.039 85.6527 231.733 84.6324 228.935 83.6121C227.714 83.153 225.985 82.5408 225.069 84.6324C222.576 90.6521 221.609 95.3965 221.406 97.335C221.406 97.437 221.253 97.437 221.253 97.233C221.101 95.7025 220.795 92.8457 220.744 86.928C220.744 85.7547 220.49 84.7854 219.218 83.9692C218.404 83.4591 215.911 82.5408 214.996 83.6121C214.232 84.5304 213.317 86.928 212.35 89.7849C211.587 92.1315 211.078 93.713 211.078 93.713C211.078 93.713 211.078 87.4382 211.078 85.0405C211.078 84.1222 210.468 83.8162 210.264 83.7651C209.45 83.5101 207.771 83.102 207.11 83.102C206.245 83.102 206.042 83.5611 206.042 84.2753C206.042 84.3773 205.889 92.5396 205.889 98.2533C205.889 98.5083 205.889 98.7634 205.889 99.0695C205.431 101.722 203.854 105.293 202.175 105.293C200.496 105.293 199.682 103.814 199.682 96.9779C199.682 92.9988 199.784 91.2643 199.835 88.4075C199.886 86.775 199.937 85.4996 199.937 85.1935C199.937 84.3263 198.41 83.8672 197.698 83.7141C196.986 83.5611 196.375 83.4591 195.867 83.5101C195.205 83.5611 194.696 84.0202 194.696 84.6324C194.696 84.9895 194.696 85.6017 194.696 85.6017C193.832 84.2243 192.407 83.255 191.44 82.9489C188.897 82.1837 186.251 82.8469 184.216 85.6527C182.639 87.8973 181.672 90.397 181.265 94.0701C181.011 96.7228 181.062 99.4266 181.571 101.722C180.96 104.273 179.892 105.344 178.671 105.344C176.941 105.344 175.669 102.487 175.822 97.5391C175.924 94.2741 176.585 91.9785 177.297 88.6625C177.602 87.2341 177.348 86.5199 176.738 85.8057C176.178 85.1425 174.957 84.8364 173.227 85.2446C172.006 85.5506 170.226 85.8567 168.598 86.1118C168.598 86.1118 168.699 85.7037 168.75 85.0405C169.157 81.4185 165.24 81.7246 164.019 82.8979C163.256 83.5611 162.747 84.3773 162.594 85.8567C162.289 88.1524 164.171 89.2747 164.171 89.2747C163.561 92.1315 162.035 95.8046 160.458 98.5083C159.644 99.9367 158.982 101.008 158.168 102.13C158.168 101.722 158.168 101.263 158.168 100.855C158.168 94.8863 158.219 90.193 158.27 88.5095C158.321 86.877 158.372 85.6017 158.372 85.3466C158.372 84.6834 157.965 84.4793 157.202 84.1222C156.489 83.8672 155.675 83.6631 154.81 83.6121C153.742 83.5101 153.081 84.1222 153.081 84.7854C153.081 84.9385 153.081 85.7037 153.081 85.7037C152.216 84.3263 150.791 83.357 149.825 83.0509C147.281 82.2857 144.635 82.9489 142.6 85.7547C141.023 87.9993 139.955 91.1112 139.65 94.1211C139.395 96.9269 139.446 99.3246 139.802 101.314C139.395 103.304 138.225 105.395 136.902 105.395C135.224 105.395 134.257 103.916 134.257 97.0799C134.257 93.1008 134.359 91.3663 134.41 88.5095C134.46 86.877 134.511 85.6017 134.511 85.2956C134.511 84.4283 132.985 83.9692 132.273 83.8162C131.51 83.6631 130.899 83.5611 130.39 83.6121C129.729 83.6631 129.271 84.2243 129.271 84.6834V85.7037C128.406 84.3263 126.982 83.357 126.015 83.0509C123.471 82.2857 120.826 82.9999 118.791 85.7547C117.468 87.5912 116.4 89.6318 115.84 94.0701C115.688 95.3454 115.637 96.5698 115.637 97.6921C115.128 100.906 112.788 104.63 110.905 104.63C109.786 104.63 108.718 102.487 108.718 97.8451C108.718 91.7234 109.074 82.9999 109.176 82.1327C109.176 82.1327 111.567 82.0817 112.025 82.0817C113.195 82.0817 114.314 82.0817 115.891 82.0306C116.705 81.9796 117.468 79.1228 116.654 78.7657C116.298 78.6127 113.653 78.4596 112.584 78.4596C111.719 78.4596 109.277 78.2556 109.277 78.2556C109.277 78.2556 109.481 72.4399 109.532 71.8277C109.583 71.3176 108.921 71.0625 108.565 70.9095C107.649 70.5014 106.835 70.3483 105.869 70.1443C104.546 69.8892 103.935 70.1443 103.783 71.2666C103.579 73.0011 103.528 78.0515 103.528 78.0515C102.562 78.0515 99.1532 77.8475 98.1866 77.8475C97.2708 77.8475 96.3042 81.8266 97.5252 81.8266C99.0006 81.8776 101.544 81.9286 103.223 81.9796C103.223 81.9796 103.172 90.8562 103.172 93.6109C103.172 93.917 103.172 94.1721 103.172 94.4782C102.257 99.3246 99.0006 101.926 99.0006 101.926C99.7128 98.7124 98.2883 96.3147 95.6937 94.2741C94.7271 93.5089 92.8447 92.0805 90.7588 90.5501C90.7588 90.5501 91.9798 89.3257 93.0482 86.928C93.8113 85.1935 93.8622 83.255 91.9798 82.8469C88.8765 82.1327 86.3327 84.4283 85.5696 86.877C84.9591 88.7646 85.3152 90.142 86.4345 91.6214C86.5362 91.7234 86.5871 91.8254 86.6888 91.9275C85.9766 93.3049 85.01 95.0904 84.196 96.5188C81.9575 100.447 80.2277 103.559 78.9558 103.559C77.9383 103.559 77.9383 100.396 77.9383 97.488C77.9383 94.9373 78.1418 91.1112 78.2945 87.1831C78.3453 85.8567 77.684 85.1425 76.6156 84.4793C75.9542 84.0712 74.5297 83.255 73.7157 83.255C72.4947 83.255 68.9335 83.408 65.5757 93.1518C65.1687 94.3762 64.3038 96.6208 64.3038 96.6208L64.3547 84.9385C64.3547 84.6834 64.2021 84.3773 63.8968 84.2243C63.3372 83.9182 61.811 83.306 60.4882 83.306C59.8268 83.306 59.5216 83.6121 59.5216 84.1733L59.4198 102.436C59.4198 103.814 59.4707 105.446 59.5725 106.161C59.7251 106.875 59.9286 107.436 60.183 107.793C60.4373 108.15 60.7935 108.405 61.3022 108.507C61.811 108.609 64.4565 108.966 64.6091 107.946C64.7617 106.722 64.7617 105.395 66.1862 100.498C68.3738 92.8457 71.172 89.0706 72.5456 87.7443C72.8 87.4892 73.0543 87.4892 73.0543 87.8973C73.0035 89.5808 72.8 93.764 72.6473 97.335C72.2912 106.875 74.021 108.66 76.5138 108.66C78.3962 108.66 81.0926 106.773 83.9416 101.977C85.7222 99.0185 87.452 96.0596 88.7238 93.968C89.5887 94.7843 90.5553 95.6515 91.522 96.5698C93.7605 98.7124 94.5236 100.753 94.0148 102.692C93.6587 104.171 92.2342 105.701 89.6905 104.222C88.9782 103.814 88.6221 103.457 87.9098 102.947C87.5028 102.692 86.8923 102.589 86.5362 102.896C85.5696 103.61 85.0608 104.528 84.7556 105.65C84.4503 106.722 85.5696 107.334 86.6888 107.844C87.6555 108.303 89.7413 108.66 91.115 108.711C96.3042 108.864 100.527 106.212 103.427 99.2225C103.935 105.242 106.174 108.66 109.99 108.66C112.584 108.66 115.128 105.344 116.247 102.028C116.552 103.355 117.061 104.528 117.672 105.497C120.622 110.191 126.371 109.17 129.271 105.191C130.187 103.967 130.289 103.508 130.289 103.508C130.696 107.283 133.748 108.609 135.478 108.609C137.411 108.609 139.446 107.691 140.82 104.528C140.972 104.885 141.176 105.191 141.379 105.497C144.33 110.191 150.079 109.17 152.979 105.191C153.132 104.987 153.233 104.834 153.335 104.681L153.437 107.181C153.437 107.181 151.809 108.711 150.791 109.629C146.314 113.711 142.957 116.823 142.702 120.445C142.397 125.036 146.111 126.77 148.96 126.974C151.961 127.23 154.505 125.546 156.082 123.25C157.456 121.21 158.372 116.823 158.321 112.435C158.27 110.701 158.27 108.456 158.219 106.11C159.796 104.273 161.526 101.977 163.154 99.2736C164.935 96.3147 166.817 92.3866 167.784 89.3257C167.784 89.3257 169.412 89.3257 171.192 89.2237C171.752 89.1727 171.904 89.3257 171.803 89.7338C171.701 90.244 169.564 98.3553 171.497 103.763C172.82 107.436 175.771 108.66 177.501 108.66C179.536 108.66 181.52 107.13 182.537 104.783C182.639 105.038 182.792 105.293 182.944 105.497C185.895 110.191 191.644 109.17 194.544 105.191C195.205 104.273 195.561 103.508 195.561 103.508C196.172 107.436 199.224 108.609 200.954 108.609C202.786 108.609 204.464 107.844 205.889 104.579C205.94 106.058 206.042 107.232 206.194 107.589C206.296 107.793 206.805 108.099 207.161 108.252C208.84 108.864 210.519 108.558 211.129 108.456C211.587 108.354 211.892 107.997 211.943 107.13C212.045 104.783 211.994 100.804 212.706 97.8451C213.927 92.8967 214.996 90.9582 215.555 90.0399C215.86 89.5298 216.166 89.4277 216.217 89.9889C216.217 91.1112 216.318 94.4782 216.776 98.9675C217.132 102.283 217.59 104.222 217.946 104.834C218.964 106.62 220.185 106.671 221.202 106.671C221.864 106.671 223.186 106.518 223.034 105.344C222.983 104.783 223.085 101.416 224.255 96.5188C225.018 93.3559 226.29 90.448 226.799 89.4278C226.951 89.0196 227.053 89.3257 227.053 89.4278C226.951 91.6214 226.748 98.7634 227.613 102.692C228.834 107.997 232.293 108.609 233.514 108.609C236.109 108.609 238.245 106.62 238.958 101.416C239.11 100.09 238.856 99.1205 238.093 99.1205Z" fill="white"/>
</g>
<defs>
<filter id="filter0_d_19300_207" x="0" y="0" width="278" height="188" filterUnits="userSpaceOnUse" color-interpolation-filters="sRGB">
<feFlood flood-opacity="0" result="BackgroundImageFix"/>
<feColorMatrix in="SourceAlpha" type="matrix" values="0 0 0 0 0 0 0 0 0 0 0 0 0 0 0 0 0 0 127 0" result="hardAlpha"/>
<feOffset dy="4"/>
<feGaussianBlur stdDeviation="2"/>
<feComposite in2="hardAlpha" operator="out"/>
<feColorMatrix type="matrix" values="0 0 0 0 0 0 0 0 0 0 0 0 0 0 0 0 0 0 0.25 0"/>
<feBlend mode="normal" in2="BackgroundImageFix" result="effect1_dropShadow_19300_207"/>
<feBlend mode="normal" in="SourceGraphic" in2="effect1_dropShadow_19300_207" result="shape"/>
</filter>
</defs>
</svg>
