<svg width="20" height="20" viewBox="0 0 20 20" fill="none" xmlns="http://www.w3.org/2000/svg">
<path d="M4.4767 20H0.330181V6.64702H4.4767V20ZM2.40121 4.82555C1.07529 4.82555 -0.000183105 3.72732 -0.000183105 2.40139C-0.000183096 1.7645 0.25282 1.1537 0.703169 0.703352C1.15352 0.253003 1.76432 0 2.40121 0C3.0381 0 3.6489 0.253003 4.09925 0.703352C4.5496 1.1537 4.8026 1.7645 4.8026 2.40139C4.8026 3.72732 3.72669 4.82555 2.40121 4.82555ZM19.9958 20H15.8582V13.4999C15.8582 11.9507 15.827 9.96406 13.7024 9.96406C11.5465 9.96406 11.2161 11.6471 11.2161 13.3882V20H7.07408V6.64702H11.051V8.46849H11.109C11.6626 7.41936 13.0148 6.31219 15.0323 6.31219C19.2288 6.31219 20.0003 9.07565 20.0003 12.665V20H19.9958Z" fill="#18B5DC"/>
</svg>
